<?xml version="1.0" encoding="UTF-8" standalone="no"?>
<svg
   xmlns:dc="http://purl.org/dc/elements/1.1/"
   xmlns:cc="http://creativecommons.org/ns#"
   xmlns:rdf="http://www.w3.org/1999/02/22-rdf-syntax-ns#"
   xmlns:svg="http://www.w3.org/2000/svg"
   xmlns="http://www.w3.org/2000/svg"
   xmlns:sodipodi="http://sodipodi.sourceforge.net/DTD/sodipodi-0.dtd"
   xmlns:inkscape="http://www.inkscape.org/namespaces/inkscape"
   viewBox="0 0 99.636551 99.646484"
   version="1.1"
   x="0px"
   y="0px"
   id="svg162"
   sodipodi:docname="basket.svg"
   width="99.636551"
   height="99.646484"
   inkscape:version="0.92.3 (2405546, 2018-03-11)">
  <metadata
     id="metadata168">
    <rdf:RDF>
      <cc:Work
         rdf:about="">
        <dc:format>image/svg+xml</dc:format>
        <dc:type
           rdf:resource="http://purl.org/dc/dcmitype/StillImage" />
        <dc:title>Basketball</dc:title>
      </cc:Work>
    </rdf:RDF>
  </metadata>
  <defs
     id="defs166" />
  <sodipodi:namedview
     pagecolor="#ffffff"
     bordercolor="#666666"
     borderopacity="1"
     objecttolerance="10"
     gridtolerance="10"
     guidetolerance="10"
     inkscape:pageopacity="0"
     inkscape:pageshadow="2"
     inkscape:window-width="1920"
     inkscape:window-height="1015"
     id="namedview164"
     showgrid="false"
     inkscape:zoom="6.616"
     inkscape:cx="50.00039"
     inkscape:cy="56.081644"
     inkscape:window-x="0"
     inkscape:window-y="0"
     inkscape:window-maximized="1"
     inkscape:current-layer="svg162" />
  <title
     id="title130">Basketball</title>
  <desc
     id="desc132">Created with Sketch.</desc>
  <g
     style="fill:#000000;fill-rule:evenodd;stroke:none;stroke-width:1"
     id="g154"
     transform="translate(3.8990917e-4,-8.1967213e-4)">
    <g
       id="g152">
      <path
         inkscape:connector-curvature="0"
         id="path134"
         d="M 22.253934,25.742951 12.871967,16.360984 C 7.9867213,21.747869 4.5014754,27.957705 2.3965574,34.518361 4.694918,34.826557 8.8736066,35.783934 13.41623,38.741312 15.681803,34.09541 18.624426,29.708525 22.253934,25.742951" />
      <path
         inkscape:connector-curvature="0"
         id="path136"
         d="M 1.1145902,39.317049 C -1.9772131,53.746557 1.3588525,69.29082 11.150656,81.302295 6.6686885,68.956393 6.837541,55.476066 11.424426,43.351475 6.794918,40.094098 2.6063934,39.443279 1.1145902,39.317049" />
      <path
         inkscape:connector-curvature="0"
         id="path138"
         d="m 21.663934,90.962787 c 0.521312,0.359016 1.049181,0.701639 1.580328,1.037705 0.160656,0.1 0.319672,0.201639 0.480328,0.29836 0.440984,0.273771 0.885246,0.537705 1.332787,0.795082 0.309836,0.17705 0.622951,0.35082 0.937705,0.521312 0.309836,0.170492 0.618033,0.337705 0.929508,0.5 0.586885,0.301639 1.177049,0.596721 1.773771,0.87377 0.04918,0.02459 0.1,0.04918 0.150819,0.07377 3.593443,1.660656 7.344263,2.867213 11.168853,3.627869 -6.155738,-6.22459 -9.581967,-14.703279 -15.404918,-34.777049 -2.334427,-8.052459 -5.711476,-13.462295 -9.2,-17.109837 -4.877049,14.47541 -2.968853,30.82623 6.180328,44.109837 0.02295,0.01475 0.0459,0.03279 0.07049,0.04918" />
      <path
         inkscape:connector-curvature="0"
         id="path140"
         d="M 38.729016,13.427049 C 35.77,8.8844262 34.814262,4.707377 34.504426,2.4073771 27.94541,4.5139344 21.735574,7.997541 16.348689,12.884426 l 9.381967,9.381967 c 3.965573,-3.629508 8.352459,-6.57377 12.99836,-8.839344" />
      <path
         inkscape:connector-curvature="0"
         id="path142"
         d="M 39.30377,1.1270492 C 39.431639,2.6155738 40.08082,6.8057377 43.339836,11.435246 55.466066,6.8483607 68.946393,6.6811475 81.293934,11.164754 72.164426,3.7221312 60.990656,8.1967213e-4 49.818525,8.1967213e-4 c -3.52623,0 -7.052459,0.38360655787 -10.514755,1.12622952787" />
      <path
         inkscape:connector-curvature="0"
         id="path144"
         d="m 63.901967,24.62541 c 20.073771,5.821311 28.55082,9.24918 34.777049,15.403278 C 97.918361,36.210656 96.715082,32.464754 95.057705,28.877869 95.021639,28.80082 94.983934,28.72541 94.947869,28.65 94.680656,28.079508 94.400328,27.517213 94.111803,26.956557 93.939672,26.62541 93.760984,26.295902 93.580656,25.964754 93.421639,25.67459 93.259344,25.382787 93.093771,25.092623 92.826557,24.627049 92.552787,24.164754 92.26918,23.704098 c -0.08689,-0.139344 -0.17377,-0.277049 -0.260655,-0.416393 -0.347541,-0.54918 -0.70164,-1.093443 -1.072132,-1.632787 -0.01147,-0.01639 -0.02295,-0.03115 -0.03279,-0.04754 C 77.62,12.456557 61.267541,10.548361 46.792131,15.42541 c 3.647541,3.488524 9.057377,6.863934 17.109836,9.2" />
      <path
         inkscape:connector-curvature="0"
         id="path146"
         d="m 48.862951,99.638197 c 9.837705,0.186885 19.719672,-2.50164 28.254098,-8.090164 0.108197,-0.07049 0.214754,-0.140984 0.322951,-0.213115 0.531147,-0.354098 1.057377,-0.722951 1.577049,-1.098361 0.170492,-0.12459 0.339344,-0.245901 0.508197,-0.372131 0.460656,-0.342623 0.916393,-0.69836 1.368852,-1.059016 0.191804,-0.152459 0.383607,-0.301639 0.572131,-0.459017 0.447541,-0.365573 0.885246,-0.74754 1.321312,-1.132786 0.165574,-0.147541 0.334426,-0.288525 0.5,-0.437705 L 25.738361,29.226721 c -3.480328,3.834426 -6.270492,8.088525 -8.355738,12.60164 4.554098,4.157377 9.027869,10.62459 11.954098,20.714754 7.562295,26.077049 10.780328,30.986885 19.52623,37.095082" />
      <g
         id="g150"
         transform="translate(27.868852,16.041311)">
        <path
           inkscape:connector-curvature="0"
           id="path148"
           d="m 60.464754,65.439344 c 0.159016,-0.191803 0.309836,-0.386885 0.465574,-0.580328 0.357377,-0.44918 0.709836,-0.9 1.04918,-1.359016 0.129508,-0.172131 0.255738,-0.347541 0.381967,-0.521312 0.370492,-0.511475 0.732787,-1.031147 1.081968,-1.554098 0.07705,-0.116393 0.155737,-0.232787 0.231147,-0.34918 5.581967,-8.531148 8.270492,-18.409836 8.083607,-28.244263 C 65.648361,24.085246 60.738525,20.870492 34.663115,13.306557 24.571311,10.380328 18.107377,5.9081967 13.948361,1.352459 9.4352459,3.4393443 5.1795082,6.2295082 1.345082,9.7081967 l 57.55082,57.5491803 c 0.150819,-0.165574 0.293442,-0.337705 0.442623,-0.504918 0.381967,-0.434426 0.760655,-0.868852 1.126229,-1.313115" />
      </g>
    </g>
  </g>
</svg>
