<?xml version="1.0" encoding="UTF-8" standalone="no"?>
<svg
   xmlns:dc="http://purl.org/dc/elements/1.1/"
   xmlns:cc="http://creativecommons.org/ns#"
   xmlns:rdf="http://www.w3.org/1999/02/22-rdf-syntax-ns#"
   xmlns:svg="http://www.w3.org/2000/svg"
   xmlns="http://www.w3.org/2000/svg"
   xmlns:sodipodi="http://sodipodi.sourceforge.net/DTD/sodipodi-0.dtd"
   xmlns:inkscape="http://www.inkscape.org/namespaces/inkscape"
   xml:space="preserve"
   version="1.1"
   style="clip-rule:evenodd;fill-rule:evenodd;image-rendering:optimizeQuality;shape-rendering:geometricPrecision;text-rendering:geometricPrecision"
   viewBox="0 0 805 805.36017"
   x="0px"
   y="0px"
   id="svg345"
   sodipodi:docname="football.svg"
   width="805"
   height="805.36017"
   inkscape:version="0.92.3 (2405546, 2018-03-11)"><metadata
     id="metadata349"><rdf:RDF><cc:Work
         rdf:about=""><dc:format>image/svg+xml</dc:format><dc:type
           rdf:resource="http://purl.org/dc/dcmitype/StillImage" /><dc:title></dc:title></cc:Work></rdf:RDF></metadata><sodipodi:namedview
     pagecolor="#ffffff"
     bordercolor="#666666"
     borderopacity="1"
     objecttolerance="10"
     gridtolerance="10"
     guidetolerance="10"
     inkscape:pageopacity="0"
     inkscape:pageshadow="2"
     inkscape:window-width="1920"
     inkscape:window-height="1015"
     id="namedview347"
     showgrid="false"
     inkscape:zoom="0.63046876"
     inkscape:cx="482.98779"
     inkscape:cy="334.54658"
     inkscape:window-x="0"
     inkscape:window-y="0"
     inkscape:window-maximized="1"
     inkscape:current-layer="svg345" /><defs
     id="defs335"><style
       type="text/css"
       id="style333">
   
    .fil0 {fill:black}
   
  </style></defs><path
     style="fill:#000000"
     inkscape:connector-curvature="0"
     id="path337"
     d="m 402,805.36016 c -222,0 -402,-180 -402,-403 0,-107 42,-209 118,-285 252,-252 687,-71.000002 687,285 0,223 -180,403 -403,403 z m -307,-593 c 30,2 60,4 90,6 36,-33 77,-60 120,-83 7,-31 17,-62.000002 34,-89.000002 -23,-6 -47,-8 -70,-6 -59,22 -112,58 -154,104.000002 -11,20 -16,45 -20,68 z m 612,-47 c -46,-59 -107,-103.000002 -177,-127.000002 35,20 66,44 92,76.000002 30,12 60,29 85,51 z m -130,36 c 11,-25 23,-51 31,-77 -29,-37.000002 -69,-65.000002 -111,-85.000002 -47,-5 -94,-3 -140,9 -17,27 -28,57.000002 -35,88.000002 38,22 74,47 107,75 49,-7 98,-10 148,-10 z m 22,278 c 24,-44 47,-94 61,-142 -19,-44 -48,-85 -81,-119 -49,-1 -99,3 -147,10 -22,41 -40,84 -54,129 31,40 60,82 87,126 44,0 89,-1 134,-4 z m 189,-71 c 1,-60 -12,-120 -38,-174 9,29 13,60 14,89 11,28 19,56 24,85 z m -37,-74 c -24,2 -53,3 -76,9 -16,50 -37,99 -62,145 15,36 23,75 28,113 27,-2 54,-5 81,-10 28,-40 47,-85 54,-133 -1,-43 -10,-84 -25,-124 z m -35,275 c -26,4 -52,7 -78,9 -39,34 -81,63 -126,88 -9,25 -20,50 -33,74 86,-17 164,-63 220,-130 7,-13 14,-27 17,-41 z m -567,-118 c 16,-45 38,-88 61,-130 -13,-41 -22,-84 -29,-127 -31,-2 -61,-3 -92,-6 -27,37 -44,83 -57,125 2,46 11,93 31,135 28,3 57,4 86,3 z m 75,-121 c -22,41 -45,84 -60,129 14,47 39,88 75,122 51,1 102,1 153,-2 23,-40 45,-82 59,-127 -26,-43 -56,-85 -87,-125 -46,-1 -93,0 -140,3 z m -161,216 c -9,-29 -14,-58 -14,-88 -18,-37 -28,-79 -32,-119 -4,71 12,143 46,207 z m 93,113 c 20,17 41,31 63,43 -8,-7 -15,-15 -21,-24 -15,-5 -29,-11 -42,-19 z m 56,9 c 18,25 41,45 67,60 40,13 81,20 123,20 19,0 38,-1 56,-4 15,-26 27,-52 37,-80 -35,-21 -70,-43 -101,-69 -51,4 -102,4 -153,3 -11,22 -23,46 -29,70 z"
     class="fil0" /></svg>