<?xml version="1.0" encoding="UTF-8" standalone="no"?>
<svg
   xmlns:dc="http://purl.org/dc/elements/1.1/"
   xmlns:cc="http://creativecommons.org/ns#"
   xmlns:rdf="http://www.w3.org/1999/02/22-rdf-syntax-ns#"
   xmlns:svg="http://www.w3.org/2000/svg"
   xmlns="http://www.w3.org/2000/svg"
   xmlns:sodipodi="http://sodipodi.sourceforge.net/DTD/sodipodi-0.dtd"
   xmlns:inkscape="http://www.inkscape.org/namespaces/inkscape"
   data-name="Layer 1"
   viewBox="0 0 90 88.805183"
   x="0px"
   y="0px"
   version="1.1"
   id="svg20"
   sodipodi:docname="print.svg"
   width="90"
   height="88.805183"
   inkscape:version="0.92.3 (2405546, 2018-03-11)">
  <metadata
     id="metadata26">
    <rdf:RDF>
      <cc:Work
         rdf:about="">
        <dc:format>image/svg+xml</dc:format>
        <dc:type
           rdf:resource="http://purl.org/dc/dcmitype/StillImage" />
        <dc:title>A</dc:title>
      </cc:Work>
    </rdf:RDF>
  </metadata>
  <defs
     id="defs24" />
  <sodipodi:namedview
     pagecolor="#ffffff"
     bordercolor="#666666"
     borderopacity="1"
     objecttolerance="10"
     gridtolerance="10"
     guidetolerance="10"
     inkscape:pageopacity="0"
     inkscape:pageshadow="2"
     inkscape:window-width="1920"
     inkscape:window-height="1015"
     id="namedview22"
     showgrid="false"
     inkscape:zoom="7.552"
     inkscape:cx="50.226743"
     inkscape:cy="40.265025"
     inkscape:window-x="0"
     inkscape:window-y="0"
     inkscape:window-maximized="1"
     inkscape:current-layer="svg20" />
  <title
     id="title2">A</title>
  <path
     d="M 72.00006,14.85938 V 2 a 2.0001,2.0001 0 0 0 -2,-2 h -50 a 2.0001,2.0001 0 0 0 -2,2 v 12.85938 h 4 V 4 h 46 v 10.85938 z"
     id="path4"
     inkscape:connector-curvature="0" />
  <path
     d="M 80.48364,18.85919 H 9.51636 A 9.51623,9.51623 0 0 0 0,28.37549 v 27.96735 a 9.51627,9.51627 0 0 0 9.51636,9.51629 h 4.9707 l 2.84448,-17.08911 a 5.97866,5.97866 0 0 1 5.918,-5.01465 h 43.5 c 2.94727,0 4.68067,-0.60156 5.91895,5.0166 l 2.84436,17.08716 h 4.97082 A 9.51642,9.51642 0 0 0 90,56.34284 V 28.37549 a 9.51639,9.51639 0 0 0 -9.51636,-9.5163 z m -1.019,14.0708 A 3.5354,3.5354 0 1 1 83,29.39459 a 3.53536,3.53536 0 0 1 -3.5354,3.5354 z"
     id="path6"
     inkscape:connector-curvature="0" />
  <path
     d="m 31.59991,52.34229 h 26.80018 a 0.93341,0.93341 0 0 1 0.93341,0.93341 v 2.13318 a 0.93341,0.93341 0 0 1 -0.93341,0.93341 H 31.6 A 0.93347,0.93347 0 0 1 30.66653,55.40882 V 53.2757 a 0.93341,0.93341 0 0 1 0.93338,-0.93341 z"
     id="path8"
     inkscape:connector-curvature="0" />
  <path
     d="m 30.45343,63.16259 h 29.09308 a 0.93347,0.93347 0 0 1 0.93347,0.93347 v 2.13313 A 0.93341,0.93341 0 0 1 59.54657,67.1626 H 30.45343 A 0.93341,0.93341 0 0 1 29.52,66.22919 v -2.13318 a 0.93341,0.93341 0 0 1 0.93343,-0.93342 z"
     id="path10"
     inkscape:connector-curvature="0" />
  <path
     d="M 29.30695,73.98389 H 60.694 a 0.93347,0.93347 0 0 1 0.93347,0.93347 v 2.13312 a 0.93341,0.93341 0 0 1 -0.93341,0.93341 H 29.30695 A 0.93341,0.93341 0 0 1 28.37354,77.05048 V 74.9173 a 0.93341,0.93341 0 0 1 0.93341,-0.93341 z"
     id="path12"
     inkscape:connector-curvature="0" />
  <path
     d="m 23.24951,47.75537 a 1.99967,1.99967 0 0 0 -1.97265,1.67188 l -6.167,37.0498 a 1.99895,1.99895 0 0 0 1.97266,2.32813 h 55.835 a 1.99895,1.99895 0 0 0 1.97266,-2.32813 l -6.168,-37.0498 a 1.99969,1.99969 0 0 0 -1.97266,-1.67188 h -2.36024 l 6.16785,37.04981 H 19.44287 l 6.16675,-37.04981 z"
     id="path14"
     inkscape:connector-curvature="0" />
</svg>
