<?xml version="1.0" encoding="UTF-8" standalone="no"?>
<svg
   xmlns:dc="http://purl.org/dc/elements/1.1/"
   xmlns:cc="http://creativecommons.org/ns#"
   xmlns:rdf="http://www.w3.org/1999/02/22-rdf-syntax-ns#"
   xmlns:svg="http://www.w3.org/2000/svg"
   xmlns="http://www.w3.org/2000/svg"
   xmlns:sodipodi="http://sodipodi.sourceforge.net/DTD/sodipodi-0.dtd"
   xmlns:inkscape="http://www.inkscape.org/namespaces/inkscape"
   version="1.1"
   x="0px"
   y="0px"
   viewBox="0 0 66.291733 95"
   enable-background="new 0 0 100 100"
   xml:space="preserve"
   id="svg259"
   sodipodi:docname="wrestling.svg"
   width="66.291733"
   height="95"
   inkscape:version="0.92.3 (2405546, 2018-03-11)"><metadata
     id="metadata265"><rdf:RDF><cc:Work
         rdf:about=""><dc:format>image/svg+xml</dc:format><dc:type
           rdf:resource="http://purl.org/dc/dcmitype/StillImage" /><dc:title></dc:title></cc:Work></rdf:RDF></metadata><defs
     id="defs263" /><sodipodi:namedview
     pagecolor="#ffffff"
     bordercolor="#666666"
     borderopacity="1"
     objecttolerance="10"
     gridtolerance="10"
     guidetolerance="10"
     inkscape:pageopacity="0"
     inkscape:pageshadow="2"
     inkscape:window-width="1920"
     inkscape:window-height="1015"
     id="namedview261"
     showgrid="false"
     inkscape:zoom="1.888"
     inkscape:cx="33.145866"
     inkscape:cy="-7.3728897"
     inkscape:window-x="0"
     inkscape:window-y="0"
     inkscape:window-maximized="1"
     inkscape:current-layer="svg259" /><g
     id="g253"
     transform="translate(-16.854134,-2.4999955)"><path
       d="M 78.733017,19.431059 C 72.854675,9.1728106 61.884312,2.4999955 50.004223,2.4999955 c -18.009581,0 -33.150089,15.1321665 -33.150089,33.1417425 v 28.712418 c 0,11.666077 6.248882,22.607673 16.305404,28.551864 5.083886,3.00502 10.908657,4.593972 16.844685,4.593972 5.935924,0 11.760696,-1.588951 16.836338,-4.593972 2.395721,-1.411949 4.618675,-3.132629 6.598724,-5.116775 6.261147,-6.261169 9.706581,-14.584671 9.706581,-23.435089 V 35.641739 c 0,-5.726029 -1.605384,-11.312088 -4.412849,-16.21068 z M 50.00824,14.285466 59.616131,28.861893 50.00824,42.894966 40.396332,28.861893 Z m 13.353923,75.236797 c -4.009445,2.144691 -8.549926,3.350822 -13.353923,3.350822 -4.803894,0 -9.344376,-1.206131 -13.357941,-3.350822 -1.016758,-0.543351 -1.658951,-1.593071 -1.658951,-2.745682 0,-4.359329 1.679554,-8.311165 4.396469,-11.168 2.716812,-2.856834 6.471085,-4.626914 10.620423,-4.626914 8.290638,0 15.012871,7.072105 15.012871,15.794914 0,1.152611 -0.642189,2.202331 -1.658948,2.745682 z m 15.667225,-47.26125 c 0,8.249435 -2.144668,16.037796 -4.219383,21.648556 v -3.597798 c 0,-0.794475 -0.419891,-1.551918 -1.127807,-1.905929 -1.037361,-0.514557 -2.243561,-0.09057 -2.754006,0.885052 l -3.791252,7.253227 -0.448731,-4.318203 c -0.07407,-0.708019 -0.510444,-1.325493 -1.148513,-1.638348 -0.637978,-0.312855 -1.395439,-0.271675 -1.996434,0.107033 l -9.928886,6.236465 v -6.899211 c 0,-1.449009 -1.177353,-2.638676 -2.630482,-2.655133 l -1.938843,-0.02058 c -1.461368,0 -2.655208,1.18964 -2.655208,2.655132 v 6.890972 l -9.933006,-6.236469 c -0.605111,-0.378708 -1.358456,-0.419888 -1.996529,-0.107033 -0.637974,0.308739 -1.074345,0.930329 -1.144295,1.634255 l -0.45285,4.31818 -3.787138,-7.249108 c -0.506317,-0.975601 -1.724878,-1.403732 -2.758019,-0.880932 -0.708122,0.358132 -1.123788,1.115574 -1.123788,1.90593 v 3.597797 C 23.115377,58.274113 20.97061,50.485748 20.97061,42.2281 v -6.586361 c 0,-3.836556 0.761587,-7.623718 2.214716,-11.130963 l 9.224983,16.412384 c 0.436371,0.7739 1.317352,1.185547 2.185875,1.012661 0.872738,-0.168762 1.535434,-0.876812 1.650707,-1.75362 l 0.510441,-3.939472 c 0,0 11.653766,14.881069 12.300079,15.564392 0.514561,0.543377 1.38308,0.547497 1.90588,0.0082 0.572147,-0.58865 12.279476,-15.547932 12.279476,-15.547932 l 0.148239,1.115574 c 0,0.0041 0,0.0041 0,0.0041 l 0.362202,2.823895 c 0.115273,0.880931 0.777966,1.588954 1.650707,1.757743 0.868622,0.168763 1.749504,-0.238762 2.185776,-1.012661 l 1.395538,-2.486343 0.0082,-0.01236 7.821304,-13.909563 c 1.457253,3.507246 2.214615,7.286167 2.214615,11.093905 v 6.619274 z"
       id="path243"
       inkscape:connector-curvature="0"
       style="fill:#000000" /><path
       d="m 75.839119,42.207523 c -0.01648,-0.64629 -0.333351,-1.243183 -0.856155,-1.617798 -0.522797,-0.378708 -1.19384,-0.48574 -1.80719,-0.296371 -18.54052,5.701305 -17.577328,17.684383 -17.527882,18.190704 0.06995,0.695683 0.489838,1.309037 1.111427,1.630131 0.296376,0.15231 0.617474,0.226403 0.938568,0.226403 0.358082,0 0.712143,-0.09058 1.029122,-0.275822 2.720932,-1.572472 5.050922,-2.268158 7.109157,-2.877411 1.802971,-0.535137 3.503029,-1.041458 5.087906,-2.021179 5.01796,-3.09972 4.939774,-11.958355 4.915047,-12.958657 z m -7.076195,9.455532 c -1.119667,0.691563 -2.4328,1.082634 -4.099991,1.576619 -1.247303,0.370464 -2.667469,0.794475 -4.252349,1.432521 0.473453,-1.193786 1.267906,-2.597492 2.609878,-4.034137 0.456974,1.045574 1.502571,1.77832 2.712791,1.77832 1.630112,0 2.955605,-1.32552 2.955605,-2.959747 0,-0.946785 -0.448731,-1.790684 -1.144394,-2.329941 1.156754,-0.670986 2.482246,-1.313156 4.005325,-1.914143 -0.304618,2.424584 -1.070327,5.388451 -2.786865,6.450508 z"
       id="path245"
       inkscape:connector-curvature="0"
       style="fill:#000000" /><path
       d="m 26.828445,40.293354 c -0.61335,-0.189369 -1.284387,-0.08234 -1.803068,0.296371 -0.5228,0.374615 -0.839777,0.971508 -0.856258,1.617798 -0.02874,1.000302 -0.106932,9.858937 4.911026,12.958657 1.584884,0.979721 3.28494,1.486042 5.087908,2.021179 2.058239,0.609253 4.388225,1.304939 7.109161,2.877411 0.316975,0.185245 0.675156,0.275822 1.029118,0.275822 0.321098,0 0.646316,-0.07409 0.938568,-0.226403 0.625713,-0.321094 1.041481,-0.934448 1.111427,-1.630131 0.04945,-0.506321 1.012638,-12.489399 -17.527882,-18.190704 z m 8.512845,12.94632 c -1.663075,-0.493985 -2.980324,-0.885056 -4.095873,-1.576619 -1.712418,-1.053817 -2.478127,-4.021804 -2.786864,-6.446388 1.523077,0.596867 2.844448,1.243157 4.001202,1.910023 -0.69566,0.539257 -1.144392,1.383156 -1.144392,2.329941 0,1.634228 1.325495,2.959747 2.955603,2.959747 1.21022,0 2.255821,-0.732746 2.712791,-1.77832 1.341976,1.436645 2.140549,2.840351 2.609882,4.034137 -1.584884,-0.638046 -3.005047,-1.062057 -4.252349,-1.432521 z"
       id="path247"
       inkscape:connector-curvature="0"
       style="fill:#000000" /><path
       d="m 59.731575,79.152885 c -2.823948,-2.128234 -6.182957,-3.247902 -9.727284,-3.247902 -3.540111,0 -6.899116,1.119668 -9.723064,3.247902 -0.905601,0.683327 -1.090923,1.971787 -0.403404,2.881539 0.683296,0.905601 1.971806,1.090851 2.881531,0.407524 2.099342,-1.584862 4.606312,-2.420487 7.244938,-2.420487 2.642845,0 5.149814,0.835625 7.249157,2.420487 0.37054,0.275795 0.806812,0.411644 1.239063,0.411644 0.62159,0 1.239063,-0.284035 1.642467,-0.819168 0.687519,-0.909752 0.502198,-2.198212 -0.403404,-2.881539 z"
       id="path249"
       inkscape:connector-curvature="0"
       style="fill:#000000" /><path
       d="m 52.984715,83.396973 c -0.864499,-0.650414 -1.89362,-0.996208 -2.980424,-0.996208 -1.082584,0 -2.111705,0.345794 -2.976203,0.996208 -0.909726,0.683326 -1.090828,1.975906 -0.407429,2.88153 0.6833,0.909729 1.97171,1.090851 2.881535,0.407532 0.102912,-0.07822 0.271652,-0.168792 0.502098,-0.168792 0.234664,0 0.403404,0.09058 0.506317,0.168792 0.370544,0.279915 0.802791,0.411644 1.234943,0.411644 0.62571,0 1.243183,-0.279915 1.646587,-0.819176 0.6834,-0.905624 0.502301,-2.198204 -0.407424,-2.88153 z"
       id="path251"
       inkscape:connector-curvature="0"
       style="fill:#000000" /></g></svg>