<?xml version="1.0" encoding="UTF-8" standalone="no"?><svg xmlns="http://www.w3.org/2000/svg" xmlns:xlink="http://www.w3.org/1999/xlink"><symbol viewBox="0 0 99.65 99.65" id="basket" xmlns="http://www.w3.org/2000/svg"><g fill-rule="evenodd"><path d="M22.254 25.742l-9.382-9.382A49.462 49.462 0 002.397 34.518c2.298.308 6.477 1.265 11.02 4.222a54.801 54.801 0 018.837-12.998M1.115 39.316c-3.092 14.43.244 29.974 10.036 41.985-4.482-12.345-4.313-25.826.274-37.95-4.63-3.258-8.818-3.909-10.31-4.035M21.664 90.962c.522.359 1.05.702 1.58 1.038.161.1.32.201.481.298a46.041 46.041 0 002.27 1.316c.31.17.619.338.93.5a49.36 49.36 0 001.774.874l.15.074a49.74 49.74 0 0011.17 3.628c-6.156-6.225-9.583-14.703-15.405-34.777-2.335-8.053-5.712-13.463-9.2-17.11-4.878 14.475-2.97 30.826 6.18 44.11l.07.049M38.73 13.426c-2.96-4.542-3.915-8.72-4.225-11.02a49.473 49.473 0 00-18.156 10.478l9.382 9.382a54.808 54.808 0 0112.998-8.84M39.304 1.126c.128 1.489.777 5.679 4.036 10.308 12.126-4.586 25.607-4.754 37.954-.27C72.164 3.72 60.991 0 49.82 0a50.16 50.16 0 00-10.515 1.126M63.902 24.625c20.074 5.82 28.551 9.249 34.777 15.403a49.745 49.745 0 00-3.62-11.151c-.037-.077-.075-.152-.11-.228a50.674 50.674 0 00-.837-1.693 58.395 58.395 0 00-1.018-1.864 52.352 52.352 0 00-.824-1.389l-.261-.416a51.739 51.739 0 00-1.072-1.633c-.012-.016-.023-.031-.033-.047-13.284-9.151-29.636-11.06-44.111-6.182 3.647 3.488 9.057 6.864 17.11 9.2M48.863 99.637c9.838.187 19.72-2.501 28.254-8.09a51.203 51.203 0 001.9-1.311c.17-.125.34-.246.509-.372.46-.343.916-.699 1.368-1.06.192-.152.384-.301.573-.458a45.07 45.07 0 001.32-1.133c.167-.148.335-.289.5-.438L25.74 29.225a49.84 49.84 0 00-8.356 12.603c4.554 4.157 9.028 10.624 11.954 20.714C36.9 88.62 40.117 93.53 48.863 99.637M88.334 81.48c.159-.192.31-.387.466-.58.357-.45.71-.9 1.049-1.36.13-.172.255-.347.382-.52.37-.512.733-1.032 1.082-1.555.077-.116.155-.233.23-.35 5.583-8.53 8.271-18.409 8.084-28.243-6.11-8.746-11.02-11.961-37.095-19.525-10.091-2.926-16.555-7.398-20.714-11.954a49.936 49.936 0 00-12.604 8.356l57.551 57.549c.151-.166.294-.338.443-.505.382-.434.76-.869 1.126-1.313"/></g></symbol><symbol xml:space="preserve" id="football" clip-rule="evenodd" fill-rule="evenodd" image-rendering="optimizeQuality" shape-rendering="geometricPrecision" text-rendering="geometricPrecision" viewBox="-0.18 0 805.36 805.36" xmlns="http://www.w3.org/2000/svg"><defs id="bdefs335"><style type="text/css" id="bstyle333">.bfil0{fill:#000}</style></defs><path id="bpath337" d="M402 805.36c-222 0-402-180-402-403 0-107 42-209 118-285 252-252 687-71 687 285 0 223-180 403-403 403zm-307-593l90 6c36-33 77-60 120-83 7-31 17-62 34-89-23-6-47-8-70-6-59 22-112 58-154 104-11 20-16 45-20 68zm612-47c-46-59-107-103-177-127 35 20 66 44 92 76 30 12 60 29 85 51zm-130 36c11-25 23-51 31-77-29-37-69-65-111-85-47-5-94-3-140 9-17 27-28 57-35 88 38 22 74 47 107 75 49-7 98-10 148-10zm22 278c24-44 47-94 61-142-19-44-48-85-81-119-49-1-99 3-147 10-22 41-40 84-54 129 31 40 60 82 87 126 44 0 89-1 134-4zm189-71c1-60-12-120-38-174 9 29 13 60 14 89 11 28 19 56 24 85zm-37-74c-24 2-53 3-76 9-16 50-37 99-62 145 15 36 23 75 28 113 27-2 54-5 81-10 28-40 47-85 54-133-1-43-10-84-25-124zm-35 275c-26 4-52 7-78 9-39 34-81 63-126 88-9 25-20 50-33 74 86-17 164-63 220-130 7-13 14-27 17-41zm-567-118c16-45 38-88 61-130-13-41-22-84-29-127-31-2-61-3-92-6-27 37-44 83-57 125 2 46 11 93 31 135 28 3 57 4 86 3zm75-121c-22 41-45 84-60 129 14 47 39 88 75 122 51 1 102 1 153-2 23-40 45-82 59-127-26-43-56-85-87-125-46-1-93 0-140 3zm-161 216c-9-29-14-58-14-88-18-37-28-79-32-119-4 71 12 143 46 207zm93 113c20 17 41 31 63 43-8-7-15-15-21-24-15-5-29-11-42-19zm56 9c18 25 41 45 67 60 40 13 81 20 123 20 19 0 38-1 56-4 15-26 27-52 37-80-35-21-70-43-101-69-51 4-102 4-153 3-11 22-23 46-29 70z" class="bfil0" fill="#000"/></symbol><symbol viewBox="0 -0.6 90 90" id="print" xmlns="http://www.w3.org/2000/svg"><path d="M72 14.86V2a2 2 0 00-2-2H20a2 2 0 00-2 2v12.86h4V4h46v10.86zM80.484 18.86H9.516A9.516 9.516 0 000 28.374v27.968a9.516 9.516 0 009.516 9.516h4.971l2.845-17.089a5.979 5.979 0 015.918-5.015h43.5c2.947 0 4.68-.601 5.918 5.017l2.845 17.087h4.97A9.516 9.516 0 0090 56.343V28.375a9.516 9.516 0 00-9.516-9.516zm-1.02 14.07A3.535 3.535 0 1183 29.395a3.535 3.535 0 01-3.535 3.535z"/><path d="M31.6 52.342h26.8a.933.933 0 01.934.934v2.133a.933.933 0 01-.934.933H31.6a.933.933 0 01-.933-.933v-2.133a.933.933 0 01.933-.934zM30.453 63.163h29.094a.933.933 0 01.933.933v2.133a.933.933 0 01-.933.934H30.453a.933.933 0 01-.933-.934v-2.133a.933.933 0 01.933-.933zM29.307 73.984h31.387a.933.933 0 01.933.933v2.133a.933.933 0 01-.933.934H29.307a.933.933 0 01-.933-.934v-2.133a.933.933 0 01.933-.933z"/><path d="M23.25 47.755a2 2 0 00-1.973 1.672l-6.167 37.05a1.999 1.999 0 001.973 2.328h55.835a1.999 1.999 0 001.972-2.328l-6.168-37.05a2 2 0 00-1.972-1.672h-2.36l6.167 37.05H19.443l6.167-37.05z"/></symbol><symbol viewBox="0 -10 156.48 171.19" id="smiley_moche" xmlns="http://www.w3.org/2000/svg"><g transform="translate(-30.994 -70.214)"><ellipse cx="109.235" cy="145.81" rx="78.241" ry="75.595" fill="#f2f2f2"/><circle cx="72.193" cy="121.241" r="7.182"/><ellipse cx="139.851" cy="124.265" rx="9.071" ry="7.182"/><ellipse cx="106.211" cy="156.393" rx="8.693" ry="6.804"/><path d="M59.72 185.875c99.786 2.268 99.03 2.268 99.03 2.268l-52.917 23.434z" fill="none" stroke="#000" stroke-width=".265"/></g></symbol><symbol viewBox="-14.35 0 95 95" id="wrestling" xmlns="http://www.w3.org/2000/svg"><path d="M61.879 16.931C56 6.673 45.03 0 33.15 0 15.14 0 0 15.132 0 33.142v28.712C0 73.52 6.249 84.462 16.305 90.406A33.12 33.12 0 0033.15 95c5.936 0 11.76-1.589 16.836-4.594a33.01 33.01 0 006.6-5.117c6.26-6.26 9.706-14.584 9.706-23.435V33.142c0-5.726-1.606-11.312-4.413-16.21zm-28.725-5.146l9.608 14.577-9.608 14.033-9.612-14.033zm13.354 75.237a28.212 28.212 0 01-13.354 3.351 28.24 28.24 0 01-13.358-3.35 3.116 3.116 0 01-1.659-2.746c0-4.36 1.68-8.312 4.397-11.168 2.716-2.857 6.47-4.627 10.62-4.627 8.29 0 15.013 7.072 15.013 15.795a3.116 3.116 0 01-1.659 2.745zm15.667-47.261c0 8.25-2.144 16.038-4.22 21.649v-3.598c0-.795-.419-1.552-1.127-1.906a2.062 2.062 0 00-2.754.885l-3.791 7.253-.449-4.318a2.067 2.067 0 00-1.148-1.638 2.054 2.054 0 00-1.997.107L36.76 64.43v-6.9a2.665 2.665 0 00-2.63-2.654l-1.94-.02a2.659 2.659 0 00-2.654 2.654v6.891l-9.933-6.236a2.054 2.054 0 00-1.997-.107 2.047 2.047 0 00-1.144 1.634l-.453 4.318-3.787-7.249a2.057 2.057 0 00-2.758-.88c-.708.357-1.124 1.115-1.124 1.905v3.598c-2.079-5.61-4.224-13.4-4.224-21.657v-6.586c0-3.837.762-7.624 2.215-11.131l9.225 16.412a2.059 2.059 0 003.837-.741l.51-3.94s11.654 14.882 12.3 15.565a1.321 1.321 0 001.906.008c.572-.588 12.28-15.548 12.28-15.548l.148 1.116v.004l.362 2.824a2.06 2.06 0 003.837.745l1.395-2.486.008-.013 7.822-13.91a28.95 28.95 0 012.214 11.095v6.619z"/><path d="M58.985 39.708a2.051 2.051 0 00-.856-1.618 2.051 2.051 0 00-1.807-.297c-18.54 5.702-17.578 17.685-17.528 18.191a2.07 2.07 0 001.111 1.63c.297.153.618.227.939.227.358 0 .712-.091 1.029-.276 2.72-1.573 5.05-2.268 7.109-2.878 1.803-.535 3.503-1.041 5.088-2.02 5.018-3.1 4.94-11.96 4.915-12.96zm-7.076 9.455c-1.12.692-2.433 1.083-4.1 1.577-1.248.37-2.668.794-4.253 1.432.474-1.194 1.268-2.597 2.61-4.034a2.965 2.965 0 002.713 1.778 2.96 2.96 0 002.956-2.96c0-.946-.449-1.79-1.145-2.33a29.673 29.673 0 014.006-1.913c-.305 2.424-1.07 5.388-2.787 6.45zM9.974 37.793a2.04 2.04 0 00-1.803.297c-.523.374-.84.971-.856 1.618-.029 1-.107 9.858 4.911 12.958 1.585.98 3.285 1.486 5.088 2.021 2.058.61 4.388 1.305 7.11 2.878.316.185.674.276 1.028.276a2.062 2.062 0 002.05-1.857c.05-.506 1.013-12.49-17.528-18.19zm8.513 12.947c-1.663-.494-2.98-.885-4.096-1.577-1.712-1.054-2.478-4.022-2.787-6.446a29.617 29.617 0 014.002 1.91 2.943 2.943 0 00-1.145 2.33 2.96 2.96 0 002.956 2.96c1.21 0 2.256-.733 2.713-1.779 1.342 1.437 2.14 2.84 2.61 4.034-1.585-.638-3.006-1.062-4.253-1.432zM42.877 76.653a16.024 16.024 0 00-9.727-3.248c-3.54 0-6.899 1.12-9.723 3.248a2.06 2.06 0 002.478 3.29 11.932 11.932 0 017.245-2.422c2.643 0 5.15.836 7.25 2.421a2.056 2.056 0 002.882-.408 2.055 2.055 0 00-.405-2.881z"/><path d="M36.13 80.897a4.918 4.918 0 00-2.98-.996 4.915 4.915 0 00-2.976.996 2.057 2.057 0 00-.407 2.882 2.056 2.056 0 002.881.407.822.822 0 01.502-.169c.235 0 .404.09.506.169.371.28.803.412 1.235.412a2.057 2.057 0 001.24-3.7z"/></symbol></svg>